# xmcd
#
# Track frame offsets: 
#        150
#        43400
#        67430
#        97650
#        152265
#        184055
#
# Disc length: 2913 seconds
#
# Revision: 4
# Processed by: cddbd v1.5.2PL0 Copyright (c) Steve Scherf et al.
# Submitted via: ExactAudioCopy v0.99pb5
#
DISCID=4a0b5f06
DTITLE=Christian Zacharias, Sir Neville Marriner - Wolfgang Amadeus Mo
DTITLE=zart Klavierkonzert No. 16 and 19 
DYEAR=1990
DGENRE=Classical
TTITLE0=Wolfgang Amadeus Mozart - Klavierkonzert No. 16 D-dur KV 451: 
TTITLE0=I. Allegro
TTITLE1=Wolfgang Amadeus Mozart - Klavierkonzert No. 16 D-dur KV 451: 
TTITLE1=II. Andante
TTITLE2=Wolfgang Amadeus Mozart - Klavierkonzert No. 16 D-dur KV 451: 
TTITLE2=III. Allegro di molto
TTITLE3=Wolfgang Amadeus Mozart - Klavierkonzert No. 19 F-dur KV 459: 
TTITLE3=I. Allegro vivace
TTITLE4=Wolfgang Amadeus Mozart - Klavierkonzert No. 19 F-dur KV 459: 
TTITLE4=II. Allegretto
TTITLE5=Wolfgang Amadeus Mozart - Klavierkonzert No. 19 F-dur KV 459: 
TTITLE5=III. Allegro assai
EXTD=\n
EXTT0=
EXTT1=
EXTT2=
EXTT3=
EXTT4=
EXTT5=
PLAYORDER=
